<svg width="1398" height="434" viewBox="0 0 1398 434" fill="none" xmlns="http://www.w3.org/2000/svg">
<rect x="0.372857" y="0.372857" width="212.254" height="204.254" rx="2.61" fill="black" stroke="#D85921" stroke-width="0.745714"/>
<rect x="237.373" y="0.372857" width="212.254" height="204.254" rx="2.61" fill="black" stroke="#D85921" stroke-width="0.745714"/>
<rect x="474.373" y="0.372857" width="212.254" height="204.254" rx="2.61" fill="black" stroke="#D85921" stroke-width="0.745714"/>
<rect x="711.373" y="0.372857" width="212.254" height="204.254" rx="2.61" fill="black" stroke="#D85921" stroke-width="0.745714"/>
<rect x="948.373" y="0.372857" width="212.254" height="204.254" rx="2.61" fill="black" stroke="#D85921" stroke-width="0.745714"/>
<rect x="1185.37" y="0.372857" width="212.254" height="204.254" rx="2.61" fill="black" stroke="#D85921" stroke-width="0.745714"/>
<rect x="0.372857" y="229.373" width="212.254" height="204.254" rx="2.61" fill="black" stroke="#D85921" stroke-width="0.745714"/>
<rect x="237.373" y="229.373" width="212.254" height="204.254" rx="2.61" fill="black" stroke="#D85921" stroke-width="0.745714"/>
<rect x="474.373" y="229.373" width="212.254" height="204.254" rx="2.61" fill="black" stroke="#D85921" stroke-width="0.745714"/>
<rect x="711.373" y="229.373" width="212.254" height="204.254" rx="2.61" fill="black" stroke="#D85921" stroke-width="0.745714"/>
<rect x="948.373" y="229.373" width="212.254" height="204.254" rx="2.61" fill="black" stroke="#D85921" stroke-width="0.745714"/>
<rect x="1185.37" y="229.373" width="212.254" height="204.254" rx="2.61" fill="black" stroke="#D85921" stroke-width="0.745714"/>
</svg>
