<svg width="567" height="188" viewBox="0 0 567 188" fill="none" xmlns="http://www.w3.org/2000/svg">
<g filter="url(#filter0_d_0_411)">
<path d="M117.086 27.0973H107.897V67.9651H113.663V39.0656L118.588 67.9651H124.835L129.4 38.6569V67.9651H135.647V27.0973H126.457L121.952 56.1132L117.086 27.0973Z" fill="white"/>
<path d="M147.061 32.9353H158.473V27.0973H140.454V67.9651H158.473V62.1271H147.061V50.1588H156.131V44.3199H147.061V32.9353Z" fill="white"/>
<path d="M181.598 27.0973H175.051V43.6198L167.242 27.0973H160.635L168.804 43.8534L160.635 67.9651H167.422L173.429 49.8079L175.051 52.961V67.9651H181.598V52.961L183.22 49.8665L189.226 67.9651H196.015L187.905 43.6785L196.015 27.0973H189.407L181.598 43.6198V27.0973Z" fill="white"/>
<path d="M224.487 73.453V62.2435H221.603V27.0973H203.102L201.601 56.9305C201.481 59.324 201.12 60.8424 199.979 62.2435H197.396V73.453H203.824V67.9651H217.939V73.453H224.487ZM209.29 32.9353H214.876V62.2435H206.226C207.307 61.2511 207.908 59.9086 208.088 56.8142L209.29 32.9353Z" fill="white"/>
<path d="M249.894 27.0973H242.987L239.983 41.109L238.422 50.6252L236.38 41.0504L232.775 27.0973H226.228L235.359 58.6239L235.299 58.974C234.757 61.9521 232.836 62.5358 229.471 62.3021V68.0237C238.662 68.6075 241.245 64.9293 242.807 57.5729L249.894 27.0973Z" fill="white"/>
<path d="M259.265 50.4502H266.773V67.9651H273.5V27.0973H266.773V44.6122H259.265V27.0973H252.657V67.9651H259.265V50.4502Z" fill="white"/>
<path d="M292.962 27.0973H283.291L276.564 67.9651H282.63L283.772 60.5501H291.881L293.022 67.9651H299.69L292.962 27.0973ZM287.796 34.3373L290.98 55.0044H284.613L287.796 34.3373Z" fill="white"/>
<path d="M312.484 27.0973H302.753V67.9651H309.36V52.6109H312.484C319.091 52.6109 322.335 49.0491 322.335 42.5101V37.1972C322.335 30.6591 319.091 27.0973 312.484 27.0973ZM312.484 32.9353C314.586 32.9353 315.728 33.8699 315.728 36.7885V42.9188C315.728 45.8383 314.586 46.772 312.484 46.772H309.36V32.9353H312.484Z" fill="white"/>
<path d="M331.464 36.4968C331.464 33.5774 332.785 32.4686 334.888 32.4686C336.99 32.4686 338.312 33.5774 338.312 36.4968V58.565C338.312 61.4845 336.99 62.5933 334.888 62.5933C332.785 62.5933 331.464 61.4845 331.464 58.565V36.4968ZM324.857 58.1563C324.857 64.6953 328.4 68.4321 334.888 68.4321C341.375 68.4321 344.92 64.6953 344.92 58.1563V36.9055C344.92 30.3665 341.375 26.6306 334.888 26.6306C328.4 26.6306 324.857 30.3665 324.857 36.9055V58.1563Z" fill="white"/>
<path d="M374.833 73.453V62.2435H371.951V27.0973H353.45L351.948 56.9305C351.828 59.324 351.468 60.8424 350.327 62.2435H347.743V73.453H354.17V67.9651H368.286V73.453H374.833ZM359.636 32.9353H365.223V62.2435H356.573C357.654 61.2511 358.255 59.9086 358.435 56.8142L359.636 32.9353Z" fill="white"/>
<path d="M385.105 50.4502H392.614V67.9651H399.341V27.0973H392.614V44.6122H385.105V27.0973H378.498V67.9651H385.105V50.4502Z" fill="white"/>
<path d="M413.877 67.9651C420.484 67.9651 423.728 64.4033 423.728 57.8652V52.5523C423.728 46.0133 420.484 42.4524 413.877 42.4524H410.753V27.0973H404.146V67.9651H413.877ZM410.753 62.1271V48.2904H413.877C415.979 48.2904 417.121 49.2242 417.121 52.1436V58.2739C417.121 61.1925 415.979 62.1271 413.877 62.1271H410.753ZM434.12 67.9651V27.0973H427.513V67.9651H434.12Z" fill="white"/>
<path d="M445.712 67.9651H438.924V27.0973H444.812V52.961L447.214 43.9698L452.62 27.0973H459.887V67.9651H453.941V39.1828L451.238 49.2241L445.712 67.9651ZM452.5 17.9898C452.319 20.1496 451.299 20.6755 449.496 20.6755C447.754 20.6755 446.853 20.1496 446.673 17.9898H442.588C442.709 21.9603 444.872 24.4701 449.496 24.4701C454.181 24.4701 456.524 21.9603 456.524 17.9898H452.5Z" fill="white"/>
<path d="M19.9887 86.9934H26.896V122.023H33.5033V86.9934H40.4116V81.1554H19.9887V86.9934Z" fill="white"/>
<path d="M65.0391 81.1554H58.1317L55.1282 95.1671L53.5669 104.683L51.5245 95.1084L47.9208 81.1554H41.3735L50.5033 112.682L50.4433 113.032C49.9021 116.009 47.9808 116.593 44.6172 116.36V122.081C53.8069 122.665 56.3894 118.987 57.9517 111.631L65.0391 81.1554Z" fill="white"/>
<path d="M77.5328 81.1554H67.802V122.023H74.4092V106.668H77.5328C84.1401 106.668 87.3837 103.107 87.3837 96.5682V91.2553C87.3837 84.7163 84.1401 81.1554 77.5328 81.1554ZM77.5328 86.9934C79.6353 86.9934 80.7765 87.928 80.7765 90.8465V96.9769C80.7765 99.8963 79.6353 100.83 77.5328 100.83H74.4092V86.9934H77.5328Z" fill="white"/>
<path d="M97.0552 104.508H104.564V122.023H111.291V81.1554H104.564V98.6702H97.0552V81.1554H90.4479V122.023H97.0552V104.508Z" fill="white"/>
<path d="M128.41 103.282L131.113 93.2401V122.023H137.059V81.1554H129.791L124.385 98.0279L121.983 107.019V81.1554H116.096V122.023H122.883L128.41 103.282Z" fill="white"/>
<path d="M151.475 81.1554H141.744V122.023H148.351V106.668H151.475C158.082 106.668 161.325 103.107 161.325 96.5682V91.2553C161.325 84.7163 158.082 81.1554 151.475 81.1554ZM151.475 86.9934C153.577 86.9934 154.718 87.928 154.718 90.8465V96.9769C154.718 99.8963 153.577 100.83 151.475 100.83H148.351V86.9934H151.475Z" fill="white"/>
<path d="M178.446 86.9934H185.953V122.023H192.681V81.1554H171.838V122.023H178.446V86.9934Z" fill="white"/>
<path d="M203.554 90.5549C203.554 87.6354 204.875 86.5267 206.977 86.5267C209.08 86.5267 210.401 87.6354 210.401 90.5549V112.623C210.401 115.543 209.08 116.651 206.977 116.651C204.875 116.651 203.554 115.543 203.554 112.623V90.5549ZM196.946 112.214C196.946 118.753 200.49 122.489 206.977 122.489C213.465 122.489 217.008 118.753 217.008 112.214V90.9636C217.008 84.4246 213.465 80.6878 206.977 80.6878C200.49 80.6878 196.946 84.4246 196.946 90.9636V112.214Z" fill="white"/>
<path d="M239.233 122.023C245.84 122.023 249.204 118.461 249.204 111.922V107.544C249.204 101.005 245.84 97.4442 239.233 97.4442H235.388V86.9934H247.282V81.1554H228.781V122.023H239.233ZM235.388 116.184V103.282H239.233C241.335 103.282 242.597 104.216 242.597 107.135V112.331C242.597 115.251 241.335 116.184 239.233 116.184H235.388Z" fill="white"/>
<path d="M268.304 81.1554H258.633L251.906 122.023H257.973L259.115 114.608H267.223L268.364 122.023H275.032L268.304 81.1554ZM263.138 88.3944L266.322 109.062H259.956L263.138 88.3944Z" fill="white"/>
<path d="M291.01 106.785V112.623C291.01 115.543 289.688 116.593 287.586 116.593C285.484 116.593 284.162 115.543 284.162 112.623V90.5549C284.162 87.6354 285.484 86.5267 287.586 86.5267C289.688 86.5267 291.01 87.6354 291.01 90.5549V94.9332H297.257V90.9636C297.257 84.4246 293.893 80.6878 287.406 80.6878C280.919 80.6878 277.555 84.4246 277.555 90.9636V112.214C277.555 118.753 280.919 122.489 287.406 122.489C293.893 122.489 297.257 118.753 297.257 112.214V106.785H291.01Z" fill="white"/>
<path d="M316.358 122.023H323.146L313.955 99.3704L323.146 81.1554H316.539L307.889 98.9617V81.1554H301.282V122.023H307.889V109.47L309.93 105.734L316.358 122.023Z" fill="white"/>
<path d="M332.756 86.9934H344.17V81.1554H326.149V122.023H344.17V116.184H332.756V104.216H341.827V98.378H332.756V86.9934Z" fill="white"/>
<path d="M346.332 86.9934H353.239V122.023H359.846V86.9934H366.754V81.1554H346.332V86.9934Z" fill="white"/>
<path d="M380.149 122.023C386.756 122.023 390.12 118.461 390.12 111.922V107.544C390.12 101.005 386.756 97.4442 380.149 97.4442H376.304V86.9934H388.198V81.1554H369.697V122.023H380.149ZM376.304 116.184V103.282H380.149C382.251 103.282 383.513 104.216 383.513 107.135V112.331C383.513 115.251 382.251 116.184 380.149 116.184H376.304Z" fill="white"/>
<path d="M400.632 90.5549C400.632 87.6354 401.953 86.5267 404.055 86.5267C406.158 86.5267 407.479 87.6354 407.479 90.5549V112.623C407.479 115.543 406.158 116.651 404.055 116.651C401.953 116.651 400.632 115.543 400.632 112.623V90.5549ZM394.024 112.214C394.024 118.753 397.568 122.489 404.055 122.489C410.543 122.489 414.086 118.753 414.086 112.214V90.9636C414.086 84.4246 410.543 80.6878 404.055 80.6878C397.568 80.6878 394.024 84.4246 394.024 90.9636V112.214Z" fill="white"/>
<path d="M416.489 122.081H417.51C424.118 122.081 426.881 119.162 427.121 111.69L427.842 86.9934H433.608V122.023H440.336V81.1554H421.655L420.574 112.04C420.454 115.834 419.493 116.243 416.489 116.243V122.081Z" fill="white"/>
<path d="M467.125 81.1554H460.218L457.215 95.1671L455.652 104.683L453.611 95.1084L450.006 81.1554H443.459L452.59 112.682L452.53 113.032C451.989 116.009 450.066 116.593 446.702 116.36V122.081C455.893 122.665 458.476 118.987 460.037 111.631L467.125 81.1554Z" fill="white"/>
<path d="M490.071 93.4735C490.071 96.743 488.57 97.794 486.106 97.794H483.524V103.632H485.746C488.75 103.632 490.071 105.033 490.071 108.829V112.039C490.071 115.659 488.75 116.651 486.647 116.651C484.545 116.651 483.224 115.543 483.224 112.623V108.829H476.976V112.214C476.976 118.753 480.34 122.489 486.827 122.489C493.315 122.489 496.678 118.753 496.678 112.214V109.004C496.678 104.858 495.357 101.822 492.053 100.421C495.237 99.1365 496.678 96.3929 496.678 92.0138V90.9636C496.678 84.4246 493.315 80.6878 486.827 80.6878C480.34 80.6878 476.976 84.4246 476.976 90.9636V93.182H483.224V90.5549C483.224 87.6354 484.545 86.5267 486.647 86.5267C488.75 86.5267 490.071 87.5191 490.071 91.1964V93.4735Z" fill="white"/>
<path d="M517.042 81.1554L511.936 96.2181L506.951 81.1554H500.102L507.011 101.005L499.622 122.023H505.809L511.275 105.851L516.681 122.023H523.649L516.26 101.005L523.169 81.1554H517.042Z" fill="white"/>
<path d="M539.687 93.4735C539.687 96.743 538.185 97.794 535.723 97.794H533.14V103.632H535.363C538.365 103.632 539.687 105.033 539.687 108.829V112.039C539.687 115.659 538.365 116.651 536.264 116.651C534.161 116.651 532.839 115.543 532.839 112.623V108.829H526.593V112.214C526.593 118.753 529.957 122.489 536.444 122.489C542.931 122.489 546.295 118.753 546.295 112.214V109.004C546.295 104.858 544.973 101.822 541.67 100.421C544.852 99.1365 546.295 96.3929 546.295 92.0138V90.9636C546.295 84.4246 542.931 80.6878 536.444 80.6878C529.957 80.6878 526.593 84.4246 526.593 90.9636V93.182H532.839V90.5549C532.839 87.6354 534.161 86.5267 536.264 86.5267C538.365 86.5267 539.687 87.5191 539.687 91.1964V93.4735Z" fill="white"/>
<path d="M24.7374 154.886H29.095V165.356H32.9993V140.927H29.095V151.397H24.7374V140.927H20.9026V165.356H24.7374V154.886Z" fill="#D85A21"/>
<path d="M44.2938 140.927H38.6812L34.7769 165.356H38.2979L38.9601 160.924H43.6665L44.3287 165.356H48.198L44.2938 140.927ZM41.2956 145.255L43.1433 157.608H39.4484L41.2956 145.255Z" fill="#D85A21"/>
<path d="M64.1295 165.356H68.0687L62.7351 151.815L68.0687 140.927H64.2339L59.2141 151.571V140.927H55.3798V165.356H59.2141V157.853L60.3996 155.619L64.1295 165.356Z" fill="#D85A21"/>
<path d="M82.4311 140.927H78.4224L76.6792 149.303L75.773 154.991L74.5876 149.268L72.496 140.927H68.6966L73.9953 159.772L73.9603 159.981C73.6465 161.761 72.531 162.11 70.5788 161.971V165.391C75.9125 165.74 77.4113 163.541 78.3179 159.144L82.4311 140.927Z" fill="#D85A21"/>
<path d="M90.1344 165.356C93.9692 165.356 95.9213 163.227 95.9213 159.318V156.701C95.9213 152.793 93.9692 150.664 90.1344 150.664H87.9033V144.417H94.8058V140.927H84.069V165.356H90.1344ZM87.9033 161.866V154.154H90.1344C91.3543 154.154 92.0865 154.712 92.0865 156.457V159.563C92.0865 161.308 91.3543 161.866 90.1344 161.866H87.9033Z" fill="#D85A21"/>
<path d="M102.021 146.546C102.021 144.801 102.789 144.138 104.009 144.138C105.229 144.138 105.996 144.801 105.996 146.546V159.737C105.996 161.482 105.229 162.145 104.009 162.145C102.789 162.145 102.021 161.482 102.021 159.737V146.546ZM98.1871 159.493C98.1871 163.401 100.244 165.635 104.009 165.635C107.773 165.635 109.83 163.401 109.83 159.493V146.79C109.83 142.881 107.773 140.648 104.009 140.648C100.244 140.648 98.1871 142.881 98.1871 146.79V159.493Z" fill="#D85A21"/>
<path d="M121.056 165.356H124.995L119.662 151.815L124.995 140.927H121.16L116.141 151.571V140.927H112.306V165.356H116.141V157.853L117.326 155.619L121.056 165.356Z" fill="#D85A21"/>
<path d="M136.011 165.356V144.417H142.286V140.927H132.176V165.356H136.011Z" fill="#D85A21"/>
<path d="M157.485 140.927H153.475L151.733 149.303L150.826 154.991L149.641 149.268L147.549 140.927H143.75L149.048 159.772L149.013 159.981C148.7 161.761 147.584 162.11 145.632 161.971V165.391C150.966 165.74 152.464 163.541 153.371 159.144L157.485 140.927Z" fill="#D85A21"/>
<path d="M165.189 165.356C169.023 165.356 170.976 163.227 170.976 159.318V156.701C170.976 152.793 169.023 150.664 165.189 150.664H162.958V144.417H169.86V140.927H159.123V165.356H165.189ZM162.958 161.866V154.154H165.189C166.409 154.154 167.141 154.712 167.141 156.457V159.563C167.141 161.308 166.409 161.866 165.189 161.866H162.958Z" fill="#D85A21"/>
<path d="M177.389 144.417H184.013V140.927H173.555V165.356H184.013V161.866H177.389V154.712H182.653V151.222H177.389V144.417Z" fill="#D85A21"/>
<path d="M192.031 140.927H186.384V165.356H190.218V156.178H192.031C195.865 156.178 197.748 154.049 197.748 150.14V146.965C197.748 143.056 195.865 140.927 192.031 140.927ZM192.031 144.417C193.251 144.417 193.913 144.975 193.913 146.72V150.385C193.913 152.129 193.251 152.688 192.031 152.688H190.218V144.417H192.031Z" fill="#D85A21"/>
<path d="M203.36 154.886H207.718V165.356H211.622V140.927H207.718V151.397H203.36V140.927H199.526V165.356H203.36V154.886Z" fill="#D85A21"/>
<path d="M222.917 140.927H217.304L213.4 165.356H216.921L217.583 160.924H222.289L222.951 165.356H226.821L222.917 140.927ZM219.919 145.255L221.766 157.608H218.071L219.919 145.255Z" fill="#D85A21"/>
<path d="M227.483 144.417H231.492V165.356H235.327V144.417H239.336V140.927H227.483V144.417Z" fill="#D85A21"/>
<path d="M244.53 146.546C244.53 144.801 245.296 144.138 246.517 144.138C247.737 144.138 248.504 144.801 248.504 146.546V159.737C248.504 161.482 247.737 162.145 246.517 162.145C245.296 162.145 244.53 161.482 244.53 159.737V146.546ZM240.695 159.493C240.695 163.401 242.752 165.635 246.517 165.635C250.282 165.635 252.338 163.401 252.338 159.493V146.79C252.338 142.881 250.282 140.648 246.517 140.648C242.752 140.648 240.695 142.881 240.695 146.79V159.493Z" fill="#D85A21"/>
<path d="M260.462 140.927H254.814V165.356H258.649V156.178H260.462C264.296 156.178 266.179 154.049 266.179 150.14V146.965C266.179 143.056 264.296 140.927 260.462 140.927ZM260.462 144.417C261.682 144.417 262.344 144.975 262.344 146.72V150.385C262.344 152.129 261.682 152.688 260.462 152.688H258.649V144.417H260.462Z" fill="#D85A21"/>
<path d="M276.462 140.927H270.85L266.946 165.356H270.466L271.129 160.924H275.835L276.497 165.356H280.367L276.462 140.927ZM273.464 145.255L275.312 157.608H271.617L273.464 145.255Z" fill="#D85A21"/>
<path d="M295.356 140.927V150.838C295.356 152.478 294.589 153.351 293.369 153.351C292.149 153.351 291.138 152.583 291.138 150.943V140.927H287.304V151.257C287.304 154.607 288.942 156.876 292.08 156.876C293.125 156.876 294.52 156.422 295.356 155.515V165.356H299.191V140.927H295.356Z" fill="#D85A21"/>
<path d="M305.848 144.417H312.472V140.927H302.014V165.356H312.472V161.866H305.848V154.712H311.112V151.222H305.848V144.417Z" fill="#D85A21"/>
<path d="M313.763 165.391H314.356C318.19 165.391 319.794 163.646 319.933 159.179L320.351 144.417H323.698V165.356H327.602V140.927H316.761L316.133 159.388C316.063 161.657 315.506 161.901 313.763 161.901V165.391Z" fill="#D85A21"/>
<path d="M333.737 165.356C333.946 164.728 334.085 164.344 334.085 162.355V158.516C334.085 156.247 334.852 155.41 336.595 155.41H337.92V165.356H341.755V140.927H335.968C331.994 140.927 330.286 142.777 330.286 146.546V148.465C330.286 150.978 331.087 152.618 332.796 153.421C330.878 154.223 330.251 156.073 330.251 158.62V162.389C330.251 163.576 330.216 164.448 329.832 165.356H333.737ZM337.92 144.417V151.92H336.421C334.992 151.92 334.12 151.292 334.12 149.338V146.93C334.12 145.185 334.713 144.417 336.072 144.417H337.92Z" fill="#D85A21"/>
<path d="M350.644 165.356C354.479 165.356 356.431 163.227 356.431 159.318V156.701C356.431 152.793 354.479 150.664 350.644 150.664H348.413V144.417H355.315V140.927H344.578V165.356H350.644ZM348.413 161.866V154.154H350.644C351.864 154.154 352.596 154.712 352.596 156.457V159.563C352.596 161.308 351.864 161.866 350.644 161.866H348.413Z" fill="#D85A21"/>
<path d="M366.157 154.154L367.726 148.151V165.356H371.177V140.927H366.959L363.822 151.013L362.427 156.387V140.927H359.011V165.356H362.95L366.157 154.154Z" fill="#D85A21"/>
<path d="M377.73 154.886H382.087V165.356H385.992V140.927H382.087V151.397H377.73V140.927H373.896V165.356H377.73V154.886Z" fill="#D85A21"/>
<path d="M396.276 156.247V159.737C396.276 161.482 395.509 162.11 394.289 162.11C393.069 162.11 392.302 161.482 392.302 159.737V146.546C392.302 144.801 393.069 144.138 394.289 144.138C395.509 144.138 396.276 144.801 396.276 146.546V149.163H399.902V146.79C399.902 142.881 397.95 140.648 394.185 140.648C390.42 140.648 388.468 142.881 388.468 146.79V159.493C388.468 163.401 390.42 165.635 394.185 165.635C397.95 165.635 399.902 163.401 399.902 159.493V156.247H396.276Z" fill="#D85A21"/>
<path d="M410.987 165.356H414.926L409.592 151.815L414.926 140.927H411.091L406.072 151.571V140.927H402.237V165.356H406.072V157.853L407.257 155.619L410.987 165.356Z" fill="#D85A21"/>
<path d="M420.189 146.546C420.189 144.801 420.956 144.138 422.176 144.138C423.397 144.138 424.163 144.801 424.163 146.546V159.737C424.163 161.482 423.397 162.145 422.176 162.145C420.956 162.145 420.189 161.482 420.189 159.737V146.546ZM416.355 159.493C416.355 163.401 418.411 165.635 422.176 165.635C425.941 165.635 427.998 163.401 427.998 159.493V146.79C427.998 142.881 425.941 140.648 422.176 140.648C418.411 140.648 416.355 142.881 416.355 146.79V159.493Z" fill="#D85A21"/>
<path d="M434.413 165.356H430.474V140.927H433.89V156.387L435.285 151.013L438.422 140.927H442.64V165.356H439.189V148.151L437.62 154.153L434.413 165.356ZM438.352 135.483C438.247 136.774 437.655 137.088 436.609 137.088C435.598 137.088 435.075 136.774 434.971 135.483H432.6C432.67 137.856 433.925 139.357 436.609 139.357C439.328 139.357 440.688 137.856 440.688 135.483H438.352Z" fill="#D85A21"/>
<path d="M454.353 146.546C454.353 144.801 455.12 144.138 456.34 144.138C457.56 144.138 458.327 144.801 458.327 146.546V159.737C458.327 161.482 457.56 162.145 456.34 162.145C455.12 162.145 454.353 161.482 454.353 159.737V146.546ZM450.518 159.493C450.518 163.401 452.575 165.635 456.34 165.635C460.105 165.635 462.161 163.401 462.161 159.493V146.79C462.161 142.881 460.105 140.648 456.34 140.648C452.575 140.648 450.518 142.881 450.518 146.79V159.493Z" fill="#D85A21"/>
<path d="M470.737 165.356C474.571 165.356 476.524 163.227 476.524 159.318V156.701C476.524 152.793 474.571 150.664 470.737 150.664H468.506V144.417H475.408V140.927H464.671V165.356H470.737ZM468.506 161.866V154.154H470.737C471.957 154.154 472.689 154.712 472.689 156.457V159.563C472.689 161.308 471.957 161.866 470.737 161.866H468.506Z" fill="#D85A21"/>
<path d="M478.023 165.391H478.616C482.45 165.391 484.054 163.646 484.193 159.179L484.611 144.417H487.958V165.356H491.862V140.927H481.021L480.393 159.388C480.324 161.657 479.766 161.901 478.023 161.901V165.391Z" fill="#D85A21"/>
<path d="M503.296 140.927H497.683L493.779 165.356H497.3L497.962 160.924H502.669L503.331 165.356H507.2L503.296 140.927ZM500.298 145.255L502.146 157.608H498.451L500.298 145.255Z" fill="#D85A21"/>
<path d="M516.473 156.247V159.737C516.473 161.482 515.707 162.11 514.486 162.11C513.266 162.11 512.499 161.482 512.499 159.737V146.546C512.499 144.801 513.266 144.138 514.486 144.138C515.707 144.138 516.473 144.801 516.473 146.546V149.163H520.099V146.79C520.099 142.881 518.147 140.648 514.382 140.648C510.617 140.648 508.665 142.881 508.665 146.79V159.493C508.665 163.401 510.617 165.635 514.382 165.635C518.147 165.635 520.099 163.401 520.099 159.493V156.247H516.473Z" fill="#D85A21"/>
<path d="M521.319 144.417H525.328V165.356H529.163V144.417H533.172V140.927H521.319V144.417Z" fill="#D85A21"/>
<path d="M541.992 154.154L543.56 148.151V165.356H547.011V140.927H542.793L539.656 151.013L538.261 156.387V140.927H534.845V165.356H538.784L541.992 154.154Z" fill="#D85A21"/>
</g>
<defs>
<filter id="filter0_d_0_411" x="4.96236e-05" y="1.40759e-05" width="567" height="187.622" filterUnits="userSpaceOnUse" color-interpolation-filters="sRGB">
<feFlood flood-opacity="0" result="BackgroundImageFix"/>
<feColorMatrix in="SourceAlpha" type="matrix" values="0 0 0 0 0 0 0 0 0 0 0 0 0 0 0 0 0 0 127 0" result="hardAlpha"/>
<feOffset dy="1.99755"/>
<feGaussianBlur stdDeviation="9.98777"/>
<feComposite in2="hardAlpha" operator="out"/>
<feColorMatrix type="matrix" values="0 0 0 0 0 0 0 0 0 0 0 0 0 0 0 0 0 0 0.4 0"/>
<feBlend mode="normal" in2="BackgroundImageFix" result="effect1_dropShadow_0_411"/>
<feBlend mode="normal" in="SourceGraphic" in2="effect1_dropShadow_0_411" result="shape"/>
</filter>
</defs>
</svg>
