<svg width="37" height="36" viewBox="0 0 37 36" fill="none" xmlns="http://www.w3.org/2000/svg">
<path d="M0 12.0558C0 8.58208 -1.09783e-07 6.84705 1.07933 5.76772C2.15866 4.68839 3.89369 4.68839 7.36743 4.68839H29.4697C32.9435 4.68839 34.6785 4.68839 35.7578 5.76772C36.8372 6.84705 36.8372 8.58208 36.8372 12.0558C36.8372 12.9233 36.8372 13.358 36.5683 13.6288C36.2975 13.8977 35.861 13.8977 34.9953 13.8977H1.84186C0.974343 13.8977 0.539664 13.8977 0.268911 13.6288C-1.64675e-07 13.358 0 12.9215 0 12.0558ZM0 28.6325C0 32.1063 -1.09783e-07 33.8413 1.07933 34.9206C2.15866 36 3.89369 36 7.36743 36H29.4697C32.9435 36 34.6785 36 35.7578 34.9206C36.8372 33.8413 36.8372 32.1063 36.8372 28.6325V19.4233C36.8372 18.5557 36.8372 18.1211 36.5683 17.8503C36.2975 17.5814 35.861 17.5814 34.9953 17.5814H1.84186C0.974343 17.5814 0.539664 17.5814 0.268911 17.8503C-1.64675e-07 18.1211 0 18.5576 0 19.4233V28.6325Z" fill="#D85A21"/>
<path d="M9.20937 1.00465V6.53023M27.628 1.00465V6.53023" stroke="#D85A21" stroke-width="2" stroke-linecap="round"/>
</svg>
