<svg width="26" height="37" viewBox="0 0 26 37" fill="none" xmlns="http://www.w3.org/2000/svg">
<path d="M12.95 0C5.7905 0 0 5.7905 0 12.95C0 22.6625 12.95 37 12.95 37C12.95 37 25.9 22.6625 25.9 12.95C25.9 5.7905 20.1095 0 12.95 0ZM12.95 17.575C11.7234 17.575 10.547 17.0877 9.67963 16.2204C8.81227 15.353 8.325 14.1766 8.325 12.95C8.325 11.7234 8.81227 10.547 9.67963 9.67963C10.547 8.81227 11.7234 8.325 12.95 8.325C14.1766 8.325 15.353 8.81227 16.2204 9.67963C17.0877 10.547 17.575 11.7234 17.575 12.95C17.575 14.1766 17.0877 15.353 16.2204 16.2204C15.353 17.0877 14.1766 17.575 12.95 17.575Z" fill="#D85A21"/>
</svg>
