<svg width="49" height="29" viewBox="0 0 49 29" fill="none" xmlns="http://www.w3.org/2000/svg">
<path d="M47.0308 28.9975H41.6657C39.6367 28.9975 39.0254 27.3603 35.3883 23.7346C32.2097 20.6827 30.8672 20.3033 30.0631 20.3033C28.9511 20.3033 28.6478 20.6078 28.6478 22.1325V26.9387C28.6478 28.2386 28.2246 28.9999 24.8155 28.9999C21.5083 28.7785 18.3011 27.7776 15.4582 26.0795C12.6153 24.3814 10.218 22.0348 8.46385 19.2329C4.30014 14.0675 1.4022 8.00635 0 1.53053C0 0.729498 0.305639 0.00341559 1.83854 0.00341559H7.19897C8.5767 0.00341559 9.07278 0.614731 9.61352 2.02708C12.2162 9.65797 16.6573 16.2958 18.4606 16.2958C19.1518 16.2958 19.4527 15.9913 19.4527 14.2744V6.41402C19.2247 2.82811 17.3133 2.52597 17.3133 1.22839C17.3375 0.886053 17.4946 0.566594 17.7515 0.337866C18.0083 0.109137 18.3445 -0.0108409 18.6887 0.00341559H27.1149C28.2669 0.00341559 28.6478 0.574912 28.6478 1.94744V12.5576C28.6478 13.7029 29.1415 14.0824 29.4895 14.0824C30.1807 14.0824 30.712 13.7029 31.9792 12.4428C34.6945 9.14188 36.9136 5.46522 38.5669 1.52819C38.7354 1.05498 39.0549 0.649843 39.4766 0.374863C39.8983 0.0998816 40.3988 -0.0297762 40.9016 0.00575762H46.2643C47.8725 0.00575762 48.2134 0.806791 47.8725 1.94978C45.9214 6.30229 43.508 10.4341 40.6735 14.2744C40.0951 15.1528 39.8647 15.6095 40.6735 16.6401C41.2048 17.4411 43.0857 19.0057 44.3482 20.493C46.1868 22.3199 47.7126 24.4326 48.867 26.7467C49.3278 28.2363 48.5613 28.9975 47.0308 28.9975Z" fill="white"/>
</svg>
