<svg width="203" height="47" viewBox="0 0 203 47" fill="none" xmlns="http://www.w3.org/2000/svg">
<path d="M53.8866 10.6357H51.2271V22.4627H52.8958V14.0993L54.321 22.4627H56.1289L57.45 13.981V22.4627H59.2579V10.6357H56.5984L55.2947 19.0328L53.8866 10.6357Z" fill="white"/>
<path d="M62.5609 12.3252H65.8636V10.6357H60.6488V22.4627H65.8636V20.7732H62.5609V17.3096H65.1857V15.6198H62.5609V12.3252Z" fill="white"/>
<path d="M72.556 10.6357H70.6613V15.4172L68.4015 10.6357H66.4894L68.8536 15.4849L66.4894 22.4627H68.4536L70.1921 17.2081L70.6613 18.1206V22.4627H72.556V18.1206L73.0255 17.225L74.7637 22.4627H76.7282L74.3813 15.4342L76.7282 10.6357H74.8161L72.556 15.4172V10.6357Z" fill="white"/>
<path d="M84.9679 24.0509V20.8069H84.1334V10.6357H78.7794L78.3449 19.2693C78.3102 19.962 78.2057 20.4014 77.8754 20.8069H77.1281V24.0509H78.9881V22.4627H83.0731V24.0509H84.9679ZM80.5699 12.3252H82.1865V20.8069H79.6834C79.9962 20.5197 80.1702 20.1312 80.2223 19.2357L80.5699 12.3252Z" fill="white"/>
<path d="M92.3209 10.6357H90.3219L89.4527 14.6906L89.0008 17.4446L88.4098 14.6737L87.3666 10.6357H85.4718L88.1142 19.7594L88.0969 19.8607C87.9403 20.7226 87.3842 20.8915 86.4105 20.8239V22.4797C89.0703 22.6486 89.8177 21.5842 90.2698 19.4552L92.3209 10.6357Z" fill="white"/>
<path d="M95.0327 17.3939H97.2057V22.4627H99.1525V10.6357H97.2057V15.7044H95.0327V10.6357H93.1206V22.4627H95.0327V17.3939Z" fill="white"/>
<path d="M104.785 10.6357H101.986L100.039 22.4627H101.795L102.125 20.3168H104.472L104.802 22.4627H106.732L104.785 10.6357ZM103.29 12.7309L104.211 18.7119H102.368L103.29 12.7309Z" fill="white"/>
<path d="M110.434 10.6357H107.618V22.4627H109.53V18.0192H110.434C112.347 18.0192 113.285 16.9885 113.285 15.0961V13.5586C113.285 11.6664 112.347 10.6357 110.434 10.6357ZM110.434 12.3252C111.043 12.3252 111.373 12.5956 111.373 13.4403V15.2144C111.373 16.0593 111.043 16.3295 110.434 16.3295H109.53V12.3252H110.434Z" fill="white"/>
<path d="M115.927 13.3559C115.927 12.511 116.31 12.1901 116.918 12.1901C117.527 12.1901 117.909 12.511 117.909 13.3559V19.7424C117.909 20.5873 117.527 20.9082 116.918 20.9082C116.31 20.9082 115.927 20.5873 115.927 19.7424V13.3559ZM114.015 19.6241C114.015 21.5165 115.041 22.5979 116.918 22.5979C118.795 22.5979 119.821 21.5165 119.821 19.6241V13.4742C119.821 11.5818 118.795 10.5006 116.918 10.5006C115.041 10.5006 114.015 11.5818 114.015 13.4742V19.6241Z" fill="white"/>
<path d="M128.478 24.0509V20.8069H127.644V10.6357H122.29L121.855 19.2693C121.82 19.962 121.716 20.4014 121.386 20.8069H120.638V24.0509H122.498V22.4627H126.583V24.0509H128.478ZM124.08 12.3252H125.697V20.8069H123.193C123.506 20.5197 123.68 20.1312 123.732 19.2357L124.08 12.3252Z" fill="white"/>
<path d="M131.451 17.3939H133.624V22.4627H135.571V10.6357H133.624V15.7044H131.451V10.6357H129.539V22.4627H131.451V17.3939Z" fill="white"/>
<path d="M139.777 22.4627C141.689 22.4627 142.628 21.432 142.628 19.5398V18.0023C142.628 16.1099 141.689 15.0794 139.777 15.0794H138.873V10.6357H136.961V22.4627H139.777ZM138.873 20.7732V16.7689H139.777C140.386 16.7689 140.716 17.0391 140.716 17.884V19.6581C140.716 20.5027 140.386 20.7732 139.777 20.7732H138.873ZM145.635 22.4627V10.6357H143.723V22.4627H145.635Z" fill="white"/>
<path d="M148.99 22.4627H147.026V10.6356H148.73V18.1205L149.425 15.5185L150.989 10.6356H153.093V22.4627H151.372V14.1332L150.589 17.0391L148.99 22.4627ZM150.955 7.99994C150.902 8.62499 150.607 8.77719 150.086 8.77719C149.581 8.77719 149.321 8.62499 149.268 7.99994H148.086C148.121 9.14898 148.747 9.87533 150.086 9.87533C151.441 9.87533 152.119 9.14898 152.119 7.99994H150.955Z" fill="white"/>
<path d="M50.6881 27.9693H52.6871V38.1069H54.5992V27.9693H56.5985V26.2798H50.6881V27.9693Z" fill="white"/>
<path d="M63.7254 26.2798H61.7264L60.8572 30.3348L60.4053 33.0887L59.8143 30.3178L58.7714 26.2798H56.8766L59.5187 35.4035L59.5014 35.5048C59.3448 36.3664 58.7887 36.5354 57.8153 36.468V38.1236C60.4748 38.2925 61.2222 37.2283 61.6743 35.0994L63.7254 26.2798Z" fill="white"/>
<path d="M67.3412 26.2798H64.5251V38.1069H66.4373V33.6631H67.3412C69.2534 33.6631 70.1921 32.6326 70.1921 30.7402V29.2027C70.1921 27.3103 69.2534 26.2798 67.3412 26.2798ZM67.3412 27.9693C67.9497 27.9693 68.2799 28.2398 68.2799 29.0844V30.8585C68.2799 31.7034 67.9497 31.9736 67.3412 31.9736H66.4373V27.9693H67.3412Z" fill="white"/>
<path d="M72.9909 33.0381H75.1638V38.1069H77.1107V26.2798H75.1638V31.3486H72.9909V26.2798H71.0787V38.1069H72.9909V33.0381Z" fill="white"/>
<path d="M82.065 32.6833L82.8471 29.7771V38.1069H84.5679V26.2798H82.4647L80.9002 31.1627L80.205 33.7647V26.2798H78.5012V38.1069H80.4655L82.065 32.6833Z" fill="white"/>
<path d="M88.74 26.2798H85.924V38.1069H87.8361V33.6631H88.74C90.6522 33.6631 91.5909 32.6326 91.5909 30.7402V29.2027C91.5909 27.3103 90.6522 26.2798 88.74 26.2798ZM88.74 27.9693C89.3485 27.9693 89.6787 28.2398 89.6787 29.0844V30.8585C89.6787 31.7034 89.3485 31.9736 88.74 31.9736H87.8361V27.9693H88.74Z" fill="white"/>
<path d="M96.5452 27.9693H98.7178V38.1069H100.665V26.2798H94.6331V38.1069H96.5452V27.9693Z" fill="white"/>
<path d="M103.811 29.0001C103.811 28.1552 104.194 27.8343 104.802 27.8343C105.411 27.8343 105.793 28.1552 105.793 29.0001V35.3866C105.793 36.2315 105.411 36.5524 104.802 36.5524C104.194 36.5524 103.811 36.2315 103.811 35.3866V29.0001ZM101.899 35.2683C101.899 37.1607 102.925 38.2419 104.802 38.2419C106.679 38.2419 107.705 37.1607 107.705 35.2683V29.1184C107.705 27.226 106.679 26.1446 104.802 26.1446C102.925 26.1446 101.899 27.226 101.899 29.1184V35.2683Z" fill="white"/>
<path d="M114.137 38.1069C116.049 38.1069 117.023 37.0761 117.023 35.1837V33.9166C117.023 32.0243 116.049 30.9937 114.137 30.9937H113.024V27.9693H116.466V26.2798H111.112V38.1069H114.137ZM113.024 36.4171V32.6833H114.137C114.745 32.6833 115.11 32.9535 115.11 33.7984V35.302C115.11 36.1469 114.745 36.4171 114.137 36.4171H113.024Z" fill="white"/>
<path d="M122.55 26.2798H119.752L117.805 38.1069H119.561L119.891 35.961H122.237L122.568 38.1069H124.497L122.55 26.2798ZM121.055 28.3748L121.977 34.3558H120.134L121.055 28.3748Z" fill="white"/>
<path d="M129.121 33.6971V35.3866C129.121 36.2315 128.739 36.5354 128.13 36.5354C127.522 36.5354 127.14 36.2315 127.14 35.3866V29.0001C127.14 28.1552 127.522 27.8343 128.13 27.8343C128.739 27.8343 129.121 28.1552 129.121 29.0001V30.2672H130.929V29.1184C130.929 27.226 129.956 26.1446 128.078 26.1446C126.201 26.1446 125.228 27.226 125.228 29.1184V35.2683C125.228 37.1607 126.201 38.2419 128.078 38.2419C129.956 38.2419 130.929 37.1607 130.929 35.2683V33.6971H129.121Z" fill="white"/>
<path d="M136.457 38.1069H138.421L135.762 31.5512L138.421 26.2798H136.509L134.006 31.4329V26.2798H132.094V38.1069H134.006V34.4741L134.597 33.3929L136.457 38.1069Z" fill="white"/>
<path d="M141.202 27.9693H144.505V26.2798H139.29V38.1069H144.505V36.4171H141.202V32.9535H143.827V31.264H141.202V27.9693Z" fill="white"/>
<path d="M145.131 27.9693H147.13V38.1069H149.042V27.9693H151.042V26.2798H145.131V27.9693Z" fill="white"/>
<path d="M154.918 38.1069C156.83 38.1069 157.803 37.0761 157.803 35.1837V33.9166C157.803 32.0243 156.83 30.9937 154.918 30.9937H153.805V27.9693H157.247V26.2798H151.893V38.1069H154.918ZM153.805 36.4171V32.6833H154.918C155.526 32.6833 155.891 32.9535 155.891 33.7984V35.302C155.891 36.1469 155.526 36.4171 154.918 36.4171H153.805Z" fill="white"/>
<path d="M160.846 29.0001C160.846 28.1552 161.228 27.8343 161.836 27.8343C162.445 27.8343 162.827 28.1552 162.827 29.0001V35.3866C162.827 36.2315 162.445 36.5524 161.836 36.5524C161.228 36.5524 160.846 36.2315 160.846 35.3866V29.0001ZM158.933 35.2683C158.933 37.1607 159.959 38.2419 161.836 38.2419C163.714 38.2419 164.739 37.1607 164.739 35.2683V29.1184C164.739 27.226 163.714 26.1446 161.836 26.1446C159.959 26.1446 158.933 27.226 158.933 29.1184V35.2683Z" fill="white"/>
<path d="M165.435 38.1236H165.73C167.642 38.1236 168.442 37.2789 168.512 35.1163L168.72 27.9693H170.389V38.1069H172.336V26.2798H166.93L166.617 35.2177C166.582 36.3158 166.304 36.4341 165.435 36.4341V38.1236Z" fill="white"/>
<path d="M180.089 26.2798H178.09L177.221 30.3348L176.769 33.0887L176.178 30.3178L175.135 26.2798H173.24L175.882 35.4035L175.865 35.5048C175.708 36.3664 175.152 36.5354 174.179 36.468V38.1236C176.838 38.2925 177.586 37.2283 178.038 35.0994L180.089 26.2798Z" fill="white"/>
<path d="M186.729 29.8447C186.729 30.7909 186.295 31.0951 185.582 31.0951H184.834V32.7846H185.478C186.347 32.7846 186.729 33.1901 186.729 34.2885V35.2177C186.729 36.2652 186.347 36.5524 185.738 36.5524C185.13 36.5524 184.748 36.2315 184.748 35.3866V34.2885H182.94V35.2683C182.94 37.1607 183.913 38.2419 185.791 38.2419C187.668 38.2419 188.641 37.1607 188.641 35.2683V34.3391C188.641 33.1394 188.259 32.2609 187.303 31.8554C188.224 31.4836 188.641 30.6896 188.641 29.4223V29.1184C188.641 27.226 187.668 26.1446 185.791 26.1446C183.913 26.1446 182.94 27.226 182.94 29.1184V29.7604H184.748V29.0001C184.748 28.1552 185.13 27.8343 185.738 27.8343C186.347 27.8343 186.729 28.1215 186.729 29.1857V29.8447Z" fill="white"/>
<path d="M194.534 26.2798L193.057 30.6389L191.614 26.2798H189.632L191.631 32.0243L189.493 38.1069H191.284L192.866 33.4266L194.43 38.1069H196.446L194.308 32.0243L196.308 26.2798H194.534Z" fill="white"/>
<path d="M201.088 29.8447C201.088 30.7909 200.653 31.0951 199.94 31.0951H199.193V32.7846H199.836C200.705 32.7846 201.088 33.1901 201.088 34.2885V35.2177C201.088 36.2652 200.705 36.5524 200.097 36.5524C199.489 36.5524 199.106 36.2315 199.106 35.3866V34.2885H197.298V35.2683C197.298 37.1607 198.272 38.2419 200.149 38.2419C202.027 38.2419 203 37.1607 203 35.2683V34.3391C203 33.1394 202.618 32.2609 201.662 31.8554C202.583 31.4836 203 30.6896 203 29.4223V29.1184C203 27.226 202.027 26.1446 200.149 26.1446C198.272 26.1446 197.298 27.226 197.298 29.1184V29.7604H199.106V29.0001C199.106 28.1552 199.489 27.8343 200.097 27.8343C200.705 27.8343 201.088 28.1215 201.088 29.1857V29.8447Z" fill="white"/>
<path d="M14.8053 7.97596L12.3413 12.4637H7.58713L12.6126 20.7874L9.77978 25.2752L0 7.97596H14.8053Z" fill="white"/>
<path d="M19.7657 34.0553H14.6534L22.2406 46.9536L32.1939 29.6652L29.7301 25.2752C27.2661 29.5132 22.2297 38.2714 22.2297 38.2714L19.7657 34.0553Z" fill="white"/>
<path d="M34.7554 25.2752H29.7299L27.3528 20.9722H32.2914L37.2084 12.4638L42.2666 12.4312L34.7554 25.2752Z" fill="white"/>
<path d="M37.1976 12.4638H32.2589L29.795 8.16063H39.846L37.1976 12.4638Z" fill="white"/>
<path fill-rule="evenodd" clip-rule="evenodd" d="M21.4481 22.2762L25.7029 14.9848H20.5798L18.8756 17.8861L17.1932 14.9848H12.0699L16.3031 22.2653" fill="white"/>
<path fill-rule="evenodd" clip-rule="evenodd" d="M16.3031 22.2653L12.0482 29.5567H17.1715L18.8755 26.6554L20.558 29.5567H25.6812L21.448 22.2762" fill="white"/>
<path d="M19.6572 0L25.3991 12.4855H13.3616L19.6572 0Z" fill="#D85A21"/>
<path d="M25.6703 2.5535L31.4123 12.4854H19.3749L25.6703 2.5535Z" fill="#D85A21"/>
</svg>
